<svg width="186" height="117" viewBox="0 0 186 117" fill="none" xmlns="http://www.w3.org/2000/svg">
<path d="M2.28615 114.364C3.00067 114.364 3.48648 114.728 3.48648 115.182C3.48648 115.636 3.00067 116 2.28615 116C1.57162 116 1 115.636 1 115.182C1 114.728 1.57162 114.364 2.28615 114.364Z" fill="#271D3B"/>
<path d="M2.28615 116.182C1.73386 116.182 1.28615 115.734 1.28615 115.182C1.28615 114.63 1.73386 114.182 2.28615 114.182V116.182ZM185.707 7.29289C186.098 7.68342 186.098 8.31658 185.707 8.70711L179.343 15.0711C178.953 15.4616 178.319 15.4616 177.929 15.0711C177.538 14.6805 177.538 14.0474 177.929 13.6569L183.586 8L177.929 2.34315C177.538 1.95262 177.538 1.31946 177.929 0.928932C178.319 0.538408 178.953 0.538408 179.343 0.928932L185.707 7.29289ZM2.48648 115.182C2.48648 115.252 2.50656 115.316 2.53381 115.363C2.55928 115.407 2.5826 115.423 2.58008 115.421C2.57088 115.415 2.4828 115.364 2.28615 115.364V113.364C2.80402 113.364 3.31612 113.495 3.72845 113.784C4.14856 114.078 4.48648 114.564 4.48648 115.182H2.48648ZM2.28615 115.364C2.08749 115.364 1.95912 115.416 1.91211 115.446C1.89072 115.46 1.90794 115.454 1.93488 115.414C1.9651 115.368 2 115.287 2 115.182H0C0 114.498 0.430176 114.019 0.83815 113.759C1.25558 113.493 1.77028 113.364 2.28615 113.364V115.364ZM2 115.182C2 115.077 1.96507 114.996 1.93474 114.95C1.90771 114.909 1.8904 114.904 1.91174 114.918C1.95872 114.947 2.0872 115 2.28615 115V117C1.77057 117 1.25597 116.871 0.838501 116.605C0.430405 116.346 0 115.866 0 115.182H2ZM2.28615 115C2.48312 115 2.57127 114.949 2.58043 114.942C2.58292 114.941 2.55948 114.956 2.53392 115.001C2.50658 115.048 2.48648 115.112 2.48648 115.182H4.48648C4.48648 115.8 4.14838 116.286 3.72809 116.58C3.3157 116.869 2.8037 117 2.28615 117V115ZM2.28615 114.182H3.48648V116.182H2.28615V114.182ZM3.48648 114.182H63.6431V116.182H3.48648V114.182ZM92.6431 85.1821V38H94.6431V85.1821H92.6431ZM123.643 7H185V9H123.643V7ZM92.6431 38C92.6431 20.8792 106.522 7 123.643 7V9C107.627 9 94.6431 21.9837 94.6431 38H92.6431ZM63.6431 114.182C79.6593 114.182 92.6431 101.198 92.6431 85.1821H94.6431C94.6431 102.303 80.7639 116.182 63.6431 116.182V114.182Z" fill="#271D3B"/>
</svg>
