<svg width="54" height="17" viewBox="0 0 54 17" fill="none" xmlns="http://www.w3.org/2000/svg">
<path d="M1.5 1C1.5 0.723858 1.27614 0.5 1 0.5C0.723858 0.5 0.5 0.723858 0.5 1H1.5ZM49.6464 16.3536C49.8417 16.5488 50.1583 16.5488 50.3536 16.3536L53.5355 13.1716C53.7308 12.9763 53.7308 12.6597 53.5355 12.4645C53.3403 12.2692 53.0237 12.2692 52.8284 12.4645L50 15.2929L47.1716 12.4645C46.9763 12.2692 46.6597 12.2692 46.4645 12.4645C46.2692 12.6597 46.2692 12.9763 46.4645 13.1716L49.6464 16.3536ZM8.5 9H42.5V8H8.5V9ZM42.5 9C46.366 9 49.5 12.134 49.5 16H50.5C50.5 11.5817 46.9183 8 42.5 8V9ZM0.5 1C0.5 5.41828 4.08172 9 8.5 9V8C4.63401 8 1.5 4.86599 1.5 1H0.5Z" fill="#271D3B"/>
</svg>
