<svg width="40" height="40" viewBox="0 0 40 40" fill="none" xmlns="http://www.w3.org/2000/svg">
<path d="M3.33301 11.9998C3.33301 10.133 3.33301 9.19957 3.69632 8.48654C4.0159 7.85933 4.52583 7.34939 5.15304 7.02982C5.86608 6.6665 6.7995 6.6665 8.66634 6.6665H31.333C33.1999 6.6665 34.1333 6.6665 34.8463 7.02982C35.4735 7.34939 35.9835 7.85933 36.303 8.48654C36.6663 9.19957 36.6663 10.133 36.6663 11.9998V27.9998C36.6663 29.8667 36.6663 30.8001 36.303 31.5131C35.9835 32.1403 35.4735 32.6503 34.8463 32.9699C34.1333 33.3332 33.1999 33.3332 31.333 33.3332H8.66634C6.7995 33.3332 5.86608 33.3332 5.15304 32.9699C4.52583 32.6503 4.0159 32.1403 3.69632 31.5131C3.33301 30.8001 3.33301 29.8667 3.33301 27.9998V11.9998Z" fill="#A73031"/>
<path d="M5.15332 8.48686L17.9535 18.4085C19.1572 19.3447 20.8427 19.3447 22.0464 18.4085L34.8466 8.3335" stroke="#271D3B"/>
</svg>
