<svg width="24" height="25" viewBox="0 0 24 25" fill="none" xmlns="http://www.w3.org/2000/svg">
<path d="M3 5.5L10.7721 11.545C11.4943 12.1067 12.5057 12.1067 13.2279 11.545L21 5.5M5.2 20.5H18.8C19.9201 20.5 20.4802 20.5 20.908 20.282C21.2843 20.0903 21.5903 19.7843 21.782 19.408C22 18.9802 22 18.4201 22 17.3V7.7C22 6.5799 22 6.01984 21.782 5.59202C21.5903 5.21569 21.2843 4.90973 20.908 4.71799C20.4802 4.5 19.9201 4.5 18.8 4.5H5.2C4.07989 4.5 3.51984 4.5 3.09202 4.71799C2.71569 4.90973 2.40973 5.21569 2.21799 5.59202C2 6.01984 2 6.57989 2 7.7V17.3C2 18.4201 2 18.9802 2.21799 19.408C2.40973 19.7843 2.71569 20.0903 3.09202 20.282C3.51984 20.5 4.0799 20.5 5.2 20.5Z" stroke="white"/>
<path d="M3.0918 5.59202L10.7719 11.545C11.4941 12.1067 12.5054 12.1067 13.2277 11.545L20.9078 5.5" stroke="white"/>
</svg>
