<svg width="40" height="40" viewBox="0 0 40 40" fill="none" xmlns="http://www.w3.org/2000/svg">
<path d="M34.4394 31.285C34.4394 31.285 32.5083 33.1817 32.035 33.7378C31.2641 34.5604 30.3558 34.9489 29.1651 34.9489C29.0506 34.9489 28.9285 34.9489 28.814 34.9413C26.547 34.7966 24.4404 33.913 22.8604 33.1589C18.5402 31.0717 14.7467 28.1086 11.5943 24.3533C8.99151 21.2227 7.25123 18.3281 6.09867 15.2203C5.38882 13.3236 5.1293 11.8458 5.24379 10.4519C5.32012 9.56067 5.6636 8.8218 6.29712 8.18957L8.89992 5.59209C9.27393 5.2417 9.67083 5.05127 10.0601 5.05127C10.541 5.05127 10.9303 5.34072 11.1745 5.58448C11.1821 5.59209 11.1898 5.59971 11.1974 5.60733C11.663 6.04151 12.1057 6.49093 12.5713 6.97081C12.8079 7.21456 13.0522 7.45832 13.2964 7.70968L15.3802 9.78919C16.1893 10.5966 16.1893 11.3431 15.3802 12.1505C15.1588 12.3714 14.9451 12.5923 14.7238 12.8056C14.0826 13.4607 14.5863 12.9581 13.9222 13.5522C13.907 13.5674 13.8917 13.5751 13.8841 13.5903C13.2276 14.2454 13.3498 14.8852 13.4871 15.3194C13.4948 15.3423 13.5024 15.3651 13.51 15.388C14.052 16.6981 14.8153 17.9321 15.9754 19.4022L15.9831 19.4099C18.0897 21.9997 20.3109 24.0183 22.761 25.5646C23.074 25.7626 23.3946 25.9226 23.6999 26.0749C23.9747 26.212 24.2342 26.3415 24.4555 26.4786C24.4861 26.4939 24.5166 26.5167 24.5471 26.532C24.8066 26.6615 25.0509 26.7224 25.3028 26.7224C25.9363 26.7224 26.3332 26.3263 26.463 26.1968L27.9591 24.7037C28.2186 24.4447 28.6308 24.1324 29.1117 24.1324C29.5849 24.1324 29.9742 24.4295 30.2108 24.6885C30.2184 24.6961 30.2184 24.6961 30.226 24.7037L34.4317 28.9008C35.2179 29.6778 34.4394 31.285 34.4394 31.285Z" fill="#A73031"/>
</svg>
