<svg width="24" height="25" viewBox="0 0 24 25" fill="none" xmlns="http://www.w3.org/2000/svg">
<path d="M20.6638 19.271C20.6638 19.271 19.5052 20.409 19.2212 20.7426C18.7587 21.2362 18.2137 21.4693 17.4992 21.4693C17.4305 21.4693 17.3573 21.4693 17.2886 21.4647C15.9284 21.3779 14.6644 20.8477 13.7164 20.3953C11.1243 19.143 8.84819 17.3651 6.95678 15.112C5.3951 13.2335 4.35093 11.4968 3.6594 9.63211C3.23349 8.4941 3.07778 7.60745 3.14647 6.77108C3.19227 6.23635 3.39835 5.79303 3.77847 5.41369L5.34015 3.8552C5.56455 3.64497 5.8027 3.53071 6.03626 3.53071C6.32478 3.53071 6.55835 3.70438 6.7049 3.85063C6.70948 3.8552 6.71406 3.85977 6.71863 3.86434C6.998 4.12485 7.26362 4.3945 7.54298 4.68243C7.68495 4.82869 7.8315 4.97494 7.97805 5.12576L9.22831 6.37346C9.71376 6.85792 9.71376 7.30581 9.22831 7.79027C9.0955 7.92281 8.96727 8.05534 8.83445 8.18331C8.44976 8.57636 8.75196 8.27478 8.35353 8.63127C8.34437 8.64041 8.33521 8.64498 8.33063 8.65412C7.93677 9.04717 8.01005 9.43108 8.09248 9.69159C8.09706 9.7053 8.10164 9.71901 8.10622 9.73272C8.43138 10.5188 8.88935 11.2592 9.58546 12.1413L9.59005 12.1459C10.854 13.6998 12.1867 14.9109 13.6568 15.8387C13.8446 15.9575 14.0369 16.0535 14.2201 16.1449C14.385 16.2272 14.5407 16.3049 14.6735 16.3871C14.6918 16.3963 14.7101 16.41 14.7285 16.4191C14.8842 16.4968 15.0307 16.5334 15.1819 16.5334C15.562 16.5334 15.8001 16.2957 15.878 16.218L16.7757 15.3222C16.9314 15.1668 17.1787 14.9794 17.4672 14.9794C17.7511 14.9794 17.9847 15.1577 18.1267 15.313C18.1312 15.3176 18.1312 15.3176 18.1358 15.3222L20.6592 17.8404C21.1309 18.3066 20.6638 19.271 20.6638 19.271Z" stroke="white" stroke-linecap="round" stroke-linejoin="round"/>
</svg>
