<svg width="30" height="30" viewBox="0 0 30 30" fill="none" xmlns="http://www.w3.org/2000/svg">
<path fill-rule="evenodd" clip-rule="evenodd" d="M1.13471 29.0737L6.81188 27.585L7.35962 27.9099C9.66264 29.2761 12.3026 29.999 14.9942 30H15.0003C23.2678 30 29.9967 23.2734 30 15.0054C30.0016 10.9988 28.4428 7.23159 25.6108 4.39731C22.7788 1.56303 19.0127 0.00138861 15.0062 0C6.73229 0 0.00328428 6.72597 1.27543e-06 14.9933C-0.00116086 17.8265 0.791869 20.5858 2.29339 22.9731L2.65004 23.5404L1.13471 29.0737ZM23.4746 18.8905C23.7891 19.0424 24.0015 19.145 24.0922 19.2963C24.2049 19.4843 24.2049 20.3868 23.8293 21.4399C23.4534 22.4928 21.6519 23.4539 20.7854 23.5832C20.0086 23.6993 19.0255 23.7478 17.9453 23.4046C17.2903 23.1969 16.4504 22.9195 15.3746 22.4551C11.1472 20.6303 8.29033 16.5346 7.75039 15.7605C7.71256 15.7062 7.68611 15.6683 7.67135 15.6486L7.66771 15.6437C7.42907 15.3255 5.83008 13.1928 5.83008 10.9856C5.83008 8.90919 6.85039 7.82086 7.32004 7.31991C7.35222 7.28558 7.38181 7.25402 7.40831 7.22508C7.82163 6.77379 8.31019 6.66097 8.61079 6.66097C8.91137 6.66097 9.21232 6.66375 9.47505 6.67694C9.50746 6.67857 9.54118 6.67837 9.57605 6.67816C9.83882 6.67662 10.1664 6.6747 10.4896 7.45073C10.614 7.74938 10.7959 8.19213 10.9878 8.6591C11.3758 9.60342 11.8045 10.6468 11.8799 10.7977C11.9927 11.0234 12.0678 11.2865 11.9175 11.5875C11.895 11.6326 11.8741 11.6752 11.8541 11.7159C11.7413 11.9463 11.6582 12.1158 11.4666 12.3394C11.3913 12.4274 11.3134 12.5222 11.2355 12.617C11.0804 12.8058 10.9253 12.9947 10.7902 13.1292C10.5644 13.354 10.3294 13.5978 10.5925 14.0491C10.8555 14.5004 11.7605 15.9765 13.1011 17.1718C14.5421 18.4567 15.7945 18.9997 16.4293 19.275C16.5533 19.3287 16.6537 19.3723 16.7274 19.4091C17.1782 19.6349 17.4412 19.5971 17.7043 19.2963C17.9673 18.9955 18.8315 17.98 19.1321 17.5288C19.4326 17.0777 19.7334 17.1529 20.1466 17.3032C20.5601 17.4538 22.777 18.5442 23.228 18.7698C23.316 18.8138 23.3983 18.8536 23.4746 18.8905Z" fill="#271D3B"/>
</svg>
