<svg width="446" height="166" viewBox="0 0 446 166" fill="none" xmlns="http://www.w3.org/2000/svg">
<g filter="url(#filter0_d_609_3691)">
<path fill-rule="evenodd" clip-rule="evenodd" d="M412.188 2C420.472 2 427.188 8.71573 427.188 17V123.023C427.188 123.434 427.179 123.843 427.161 124.25C426.972 133.862 427.572 140.092 428.963 142.94C430.254 145.584 432.995 148.14 437.186 150.607L437.825 150.977C437.994 151.073 438.05 151.282 437.95 151.444C437.892 151.537 437.791 151.599 437.678 151.609C428.821 152.434 421.55 150.439 415.866 145.624C410.683 149.613 404.096 152 396.927 152H23C14.7157 152 8 145.284 8 137L8 17C8 8.71573 14.7157 2 23 2L412.188 2Z" fill="#A73031"/>
</g>
<!-- <defs>
<filter id="filter0_d_609_3691" x="0" y="0" width="446" height="166" filterUnits="userSpaceOnUse" color-interpolation-filters="sRGB">
<feFlood flood-opacity="0" result="BackgroundImageFix"/>
<feColorMatrix in="SourceAlpha" type="matrix" values="0 0 0 0 0 0 0 0 0 0 0 0 0 0 0 0 0 0 127 0" result="hardAlpha"/>
<feOffset dy="6"/>
<feGaussianBlur stdDeviation="4"/>
<feComposite in2="hardAlpha" operator="out"/>
<feColorMatrix type="matrix" values="0 0 0 0 0.20306 0 0 0 0 0.0444127 0 0 0 0 0.0444127 0 0 0 0.4 0"/>
<feBlend mode="normal" in2="BackgroundImageFix" result="effect1_dropShadow_609_3691"/>
<feBlend mode="normal" in="SourceGraphic" in2="effect1_dropShadow_609_3691" result="shape"/>
</filter>
</defs> -->
</svg>
