<svg width="80" height="80" viewBox="0 0 80 80" fill="none" xmlns="http://www.w3.org/2000/svg">
<path d="M39.9935 6.6665C30.4935 6.6665 24.3368 13.3965 17.0535 15.8498C14.0935 16.8498 12.6102 17.3465 12.0135 18.0498C11.4135 18.7498 11.2368 19.7798 10.8868 21.8332C7.13016 43.8198 15.3402 64.1465 34.9168 72.0598C37.0202 72.9098 38.0735 73.3332 40.0035 73.3332C41.9335 73.3332 42.9902 72.9065 45.0935 72.0565C64.6702 64.1465 72.8702 43.8198 69.1135 21.8332C68.7602 19.7798 68.5868 18.7498 67.9868 18.0465C67.3868 17.3432 65.9068 16.8465 62.9468 15.8498C55.6602 13.3965 49.4935 6.6665 39.9935 6.6665Z" stroke="black" stroke-width="2" stroke-linecap="round" stroke-linejoin="round"/>
<path d="M27.0966 37.103L40.4266 20.6363C41.4699 19.3463 43.4232 20.1497 43.4232 21.863V34.6097C43.4232 35.6397 44.1899 36.473 45.1366 36.473H51.6166C53.0899 36.473 53.8766 38.3597 52.9032 39.563L39.5732 56.0297C38.5299 57.3197 36.5766 56.5163 36.5766 54.803V42.0563C36.5766 41.0263 35.8099 40.193 34.8632 40.193H28.3832C26.9132 40.193 26.1266 38.3063 27.0999 37.103" stroke="black" stroke-width="2" stroke-linecap="round" stroke-linejoin="round"/>
</svg>
