<svg width="120" height="120" viewBox="0 0 120 120" fill="none" xmlns="http://www.w3.org/2000/svg">
<path d="M120 32.4998C118.355 32.4998 116.705 32.8498 115.315 33.7248C107.5 38.6648 107.5 45.3998 107.5 49.9998V52.4998H85M45 67.4998H120M82.5 67.4998V120M60 117.5C55 117.5 51.25 110 51.25 110C47.5 102.5 47.5 97.4998 47.5 89.9998V82.4998H7.5V81.2498L17.11 43.7748C17.9369 40.5492 19.8136 37.6905 22.4443 35.6492C25.075 33.6078 28.3102 32.4998 31.64 32.4998H37.5L44.735 46.9698C45.5657 48.6321 46.8431 50.0301 48.424 51.0069C50.0049 51.9837 51.8267 52.5006 53.685 52.4998H75M36.75 22.4998C36.75 22.4998 28.75 17.4998 28.75 11.2498C28.75 10.102 28.9761 8.9655 29.4153 7.90511C29.8545 6.84473 30.4983 5.88124 31.3099 5.06965C32.1215 4.25807 33.085 3.61428 34.1453 3.17506C35.2057 2.73583 36.3422 2.50977 37.49 2.50977C38.6378 2.50977 39.7743 2.73583 40.8347 3.17506C41.895 3.61428 42.8585 4.25807 43.6701 5.06965C44.4817 5.88124 45.1255 6.84473 45.5647 7.90511C46.0039 8.9655 46.23 10.102 46.23 11.2498C46.23 17.4998 38.25 22.4998 38.25 22.4998H36.75Z" stroke="black" stroke-width="2"/>
</svg>
