<svg width="82" height="82" viewBox="0 0 82 82" fill="none" xmlns="http://www.w3.org/2000/svg">
<path d="M56 81L52.68 69.3733C51.5758 65.513 49.3016 61.9958 46.105 59.2045L38.5 52.5556M11 37.2356C16 28.48 23.69 23.4 41 23.2222M41 23.2222C42.095 23.2089 43.72 23.2044 45.35 23.2044C47.875 23.2044 49.135 23.2044 50.14 23.6222C51.145 24.04 52.18 25.1333 54.24 27.3289C54.83 27.9511 55.44 28.5156 56 28.8933M41 23.2222L34.65 31.9244C31.165 36.7067 29.42 39.1022 29.35 41.6133C29.3204 42.7328 29.5291 43.8472 29.965 44.8978C30.94 47.2533 33.465 49.0178 38.5 52.5467M81 24.1022C70.815 34.2933 61.775 32.7467 56 28.8978L38.5 52.5511M1 66.4667L4.39 67.1867C13.035 69.0089 22.015 65.5156 26 58.7778M66 7.66667C66 9.43478 65.2098 11.1305 63.8033 12.3807C62.3968 13.631 60.4891 14.3333 58.5 14.3333C56.5109 14.3333 54.6032 13.631 53.1967 12.3807C51.7902 11.1305 51 9.43478 51 7.66667C51 5.89856 51.7902 4.20286 53.1967 2.95262C54.6032 1.70238 56.5109 1 58.5 1C60.4891 1 62.3968 1.70238 63.8033 2.95262C65.2098 4.20286 66 5.89856 66 7.66667Z" stroke="black" stroke-width="2" stroke-linecap="round" stroke-linejoin="round"/>
</svg>
