<svg width="120" height="120" viewBox="0 0 120 120" fill="none" xmlns="http://www.w3.org/2000/svg">
<path d="M25.7151 70C21.9634 63.8561 19.9854 56.7938 20.0001 49.595C20.0001 27.725 37.9101 10 60.0001 10C82.0901 10 100 27.725 100 49.595C100.015 56.7938 98.0368 63.8561 94.2851 70M75.0001 95L74.3501 98.235C73.6501 101.77 73.2951 103.535 72.5001 104.935C71.2751 107.093 69.2916 108.718 66.9351 109.495C65.4101 110 63.6001 110 60.0001 110C56.4001 110 54.5901 110 53.0651 109.5C50.7078 108.722 48.7242 107.095 47.5001 104.935C46.7051 103.535 46.3501 101.77 45.6501 98.235L45.0001 95M36.9151 85.49C36.4551 84.11 36.2251 83.415 36.2501 82.855C36.2784 82.276 36.4738 81.7175 36.8128 81.2472C37.1517 80.7769 37.6197 80.4149 38.1601 80.205C38.6801 80 39.4101 80 40.8601 80H79.1401C80.5951 80 81.3201 80 81.8401 80.2C82.3812 80.4103 82.8497 80.7731 83.1887 81.2443C83.5277 81.7156 83.7227 82.2751 83.7501 82.855C83.7751 83.415 83.5451 84.105 83.0851 85.49C82.2351 88.045 81.8101 89.325 81.1551 90.36C79.7851 92.523 77.6376 94.0782 75.1551 94.705C73.9651 95 72.6251 95 69.9401 95H50.0601C47.3751 95 46.0301 95 44.8451 94.7C42.3634 94.0744 40.216 92.5212 38.8451 90.36C38.1901 89.325 37.7651 88.045 36.9151 85.49Z" stroke="black" stroke-width="2" stroke-linecap="round" stroke-linejoin="round"/>
<path d="M41.25 48.75L52.5 60V80M78.75 48.75L67.5 60V80M41.25 52.5C42.2446 52.5 43.1984 52.1049 43.9016 51.4016C44.6049 50.6984 45 49.7446 45 48.75C45 47.7554 44.6049 46.8016 43.9016 46.0984C43.1984 45.3951 42.2446 45 41.25 45C40.2554 45 39.3016 45.3951 38.5983 46.0984C37.8951 46.8016 37.5 47.7554 37.5 48.75C37.5 49.7446 37.8951 50.6984 38.5983 51.4016C39.3016 52.1049 40.2554 52.5 41.25 52.5ZM78.75 52.5C77.7554 52.5 76.8016 52.1049 76.0984 51.4016C75.3951 50.6984 75 49.7446 75 48.75C75 47.7554 75.3951 46.8016 76.0984 46.0984C76.8016 45.3951 77.7554 45 78.75 45C79.7446 45 80.6984 45.3951 81.4017 46.0984C82.1049 46.8016 82.5 47.7554 82.5 48.75C82.5 49.7446 82.1049 50.6984 81.4017 51.4016C80.6984 52.1049 79.7446 52.5 78.75 52.5Z" stroke="black" stroke-width="2" stroke-linecap="round" stroke-linejoin="round"/>
</svg>
