<svg width="60" height="60" viewBox="0 0 60 60" fill="none" xmlns="http://www.w3.org/2000/svg">
<path d="M5 18C5 15.1997 5 13.7996 5.54497 12.73C6.02433 11.7892 6.78924 11.0243 7.73005 10.545C8.79961 10 10.1997 10 13 10H47C49.8003 10 51.2004 10 52.27 10.545C53.2108 11.0243 53.9757 11.7892 54.455 12.73C55 13.7996 55 15.1997 55 18V42C55 44.8003 55 46.2004 54.455 47.27C53.9757 48.2108 53.2108 48.9757 52.27 49.455C51.2004 50 49.8003 50 47 50H13C10.1997 50 8.79961 50 7.73005 49.455C6.78924 48.9757 6.02433 48.2108 5.54497 47.27C5 46.2004 5 44.8003 5 42V18Z" fill="#A73031"/>
<path d="M7.72949 12.73L26.9297 27.6125C28.7353 29.0168 31.2636 29.0168 33.0691 27.6125L52.2694 12.5" stroke="#271D3B"/>
</svg>
