<svg width="20" height="20" viewBox="0 0 20 20" fill="none" xmlns="http://www.w3.org/2000/svg">
<path d="M17.2192 15.6425C17.2192 15.6425 16.2536 16.5909 16.017 16.8689C15.6316 17.2802 15.1774 17.4745 14.5821 17.4745C14.5248 17.4745 14.4637 17.4745 14.4065 17.4706C13.273 17.3983 12.2197 16.9565 11.4297 16.5794C9.2696 15.5359 7.37284 14.0543 5.79667 12.1767C4.49527 10.6113 3.62513 9.16405 3.04885 7.61014C2.69392 6.66179 2.56416 5.92292 2.62141 5.22594C2.65957 4.78034 2.83131 4.4109 3.14807 4.09479L4.44947 2.79605C4.63647 2.62085 4.83493 2.52563 5.02957 2.52563C5.27 2.52563 5.46464 2.67036 5.58676 2.79224C5.59058 2.79605 5.59439 2.79986 5.59821 2.80366C5.83101 3.02076 6.05236 3.24546 6.28517 3.48541C6.40347 3.60728 6.5256 3.72916 6.64773 3.85484L7.68961 4.89459C8.09415 5.29831 8.09415 5.67155 7.68961 6.07527C7.57893 6.18572 7.47207 6.29617 7.36139 6.40281C7.04082 6.73035 7.29265 6.47903 6.96062 6.7761C6.95299 6.78372 6.94535 6.78753 6.94154 6.79514C6.61333 7.12268 6.67439 7.44261 6.74309 7.6597C6.7469 7.67113 6.75072 7.68255 6.75453 7.69398C7.0255 8.34906 7.40714 8.96605 7.98724 9.70112L7.99105 9.70493C9.04438 10.9999 10.155 12.0091 11.38 12.7823C11.5365 12.8813 11.6968 12.9613 11.8494 13.0375C11.9868 13.106 12.1166 13.1708 12.2273 13.2393C12.2425 13.2469 12.2578 13.2584 12.2731 13.266C12.4028 13.3307 12.525 13.3612 12.6509 13.3612C12.9677 13.3612 13.1661 13.1632 13.231 13.0984L13.9791 12.3519C14.1088 12.2224 14.3149 12.0662 14.5553 12.0662C14.792 12.0662 14.9866 12.2148 15.1049 12.3442C15.1087 12.3481 15.1087 12.3481 15.1125 12.3519L17.2154 14.4504C17.6085 14.8389 17.2192 15.6425 17.2192 15.6425Z" stroke="black" stroke-linecap="round" stroke-linejoin="round"/>
</svg>
