<?xml version="1.0" encoding="utf-8"?><svg viewBox="0 0 92 92" xmlns="http://www.w3.org/2000/svg" xmlns:xlink="http://www.w3.org/1999/xlink"><style>:root>svg{display:none}:root>svg:target{display:block}</style><svg viewBox="0 0 92 92" id="play" xmlns="http://www.w3.org/2000/svg"><path d="M62.872 49.794l-.546-.838-.014.01-.013.009.573.82zm0-6.45l-.593.805.044.032.048.028.5-.866zM37.018 24.305l.593-.805-.028-.02-.03-.02-.535.845zm-5.42 2.844l1-.003v-.017l-1 .02zm.109 37.395l-1 .003v.028l.002.029.998-.06zm5.618 3.116l.485.875.046-.025.043-.03-.574-.82zM46 90C21.7 90 2 70.3 2 46H0c0 25.405 20.595 46 46 46v-2zm44-44c0 24.3-19.7 44-44 44v2c25.405 0 46-20.595 46-46h-2zM46 2c24.3 0 44 19.7 44 44h2C92 20.595 71.405 0 46 0v2zm0-2C20.595 0 0 20.595 0 46h2C2 21.7 21.7 2 46 2V0zm17.417 50.632c1.735-1.13 2.932-2.528 2.93-4.158-.002-1.652-1.23-2.988-2.975-3.996l-1 1.731c1.548.895 1.974 1.709 1.975 2.268 0 .581-.45 1.456-2.02 2.48l1.09 1.675zm.048-8.094L37.61 23.501l-1.186 1.61L62.28 44.15l1.186-1.61zM37.553 23.461c-1.524-.965-3.265-1.273-4.7-.604-1.49.696-2.296 2.273-2.255 4.313l2-.04c-.03-1.502.533-2.195 1.101-2.46.624-.292 1.629-.25 2.784.48l1.07-1.689zm-6.955 3.692l.109 37.395 2-.006-.109-37.395-2 .006zm.11 37.451c.122 2.047.782 3.721 2.22 4.489 1.426.762 3.173.389 4.882-.557l-.969-1.75c-1.501.831-2.449.822-2.972.543-.512-.274-1.057-1.046-1.164-2.843l-1.996.118zm7.19 3.877l25.547-17.867-1.146-1.64-25.547 17.868L37.9 68.48z"/></svg></svg>