<?xml version="1.0" encoding="utf-8"?><svg viewBox="0 0 92 92" xmlns="http://www.w3.org/2000/svg" xmlns:xlink="http://www.w3.org/1999/xlink"><style>:root>svg{display:none}:root>svg:target{display:block}</style><svg viewBox="0 0 92 92" id="play" xmlns="http://www.w3.org/2000/svg"><path d="M62.872 49.794l-.546-.838-.014.01-.013.009.573.82zm0-6.45l-.593.805.044.032.048.028.5-.866zM37.018 24.305l.593-.805-.028-.02-.03-.02-.535.845zm-5.42 2.844l1-.003v-.017l-1 .02zm.109 37.395l-1 .003v.028l.002.029.998-.06zm5.618 3.116l.485.875.046-.025.043-.03-.574-.82zM46 90C21.7 90 2 70.3 2 46H0c0 25.405 20.595 46 46 46v-2zm44-44c0 24.3-19.7 44-44 44v2c25.405 0 46-20.595 46-46h-2zM46 2c24.3 0 44 19.7 44 44h2C92 20.595 71.405 0 46 0v2zm0-2C20.595 0 0 20.595 0 46h2C2 21.7 21.7 2 46 2V0zm17.417 50.632c1.735-1.13 2.932-2.528 2.93-4.158-.002-1.652-1.23-2.988-2.975-3.996l-1 1.731c1.548.895 1.974 1.709 1.975 2.268 0 .581-.45 1.456-2.02 2.48l1.09 1.675zm.048-8.094L37.61 23.501l-1.186 1.61L62.28 44.15l1.186-1.61zM37.553 23.461c-1.524-.965-3.265-1.273-4.7-.604-1.49.696-2.296 2.273-2.255 4.313l2-.04c-.03-1.502.533-2.195 1.101-2.46.624-.292 1.629-.25 2.784.48l1.07-1.689zm-6.955 3.692l.109 37.395 2-.006-.109-37.395-2 .006zm.11 37.451c.122 2.047.782 3.721 2.22 4.489 1.426.762 3.173.389 4.882-.557l-.969-1.75c-1.501.831-2.449.822-2.972.543-.512-.274-1.057-1.046-1.164-2.843l-1.996.118zm7.19 3.877l25.547-17.867-1.146-1.64-25.547 17.868L37.9 68.48z"/></svg><svg viewBox="0 0 24 24" id="tel" xmlns="http://www.w3.org/2000/svg"><path d="M20.664 18.771s-1.159 1.138-1.443 1.472c-.462.493-1.007.726-1.722.726-.069 0-.142 0-.21-.004-1.36-.087-2.625-.617-3.573-1.07a20.337 20.337 0 01-6.76-5.283c-1.56-1.878-2.605-3.615-3.297-5.48-.426-1.138-.581-2.024-.513-2.86.046-.536.252-.979.632-1.358L5.34 3.355c.225-.21.463-.324.696-.324.289 0 .522.173.669.32l.014.013c.279.26.545.53.824.818.142.147.288.293.435.444l1.25 1.248c.486.484.486.932 0 1.416-.133.133-.26.265-.394.393-.384.393-.082.092-.48.448-.01.01-.019.014-.023.023-.394.393-.32.777-.239 1.038l.014.04c.325.787.783 1.527 1.48 2.41l.004.004c1.264 1.554 2.597 2.765 4.067 3.693.188.119.38.215.563.306.165.082.32.16.454.242.018.01.036.023.055.032a.994.994 0 00.453.114c.38 0 .618-.237.696-.315l.898-.896c.155-.155.403-.342.691-.342.284 0 .518.178.66.333a.39.39 0 00.009.01l2.523 2.517c.472.467.005 1.431.005 1.431z"/></svg><svg viewBox="0 0 24 24" id="user" xmlns="http://www.w3.org/2000/svg"><path d="M12 14a5 5 0 100-10 5 5 0 000 10zm0 0c-4.418 0-8 2.686-8 6m8-6c4.418 0 8 2.686 8 6"/></svg></svg>