<?xml version="1.0" encoding="utf-8"?><svg viewBox="0 0 92 92" xmlns="http://www.w3.org/2000/svg" xmlns:xlink="http://www.w3.org/1999/xlink"><style>:root>svg{display:none}:root>svg:target{display:block}</style><svg viewBox="0 0 22 11" id="arrow" xmlns="http://www.w3.org/2000/svg"><path d="M1 .667l8.821 8.821c.651.65 1.707.65 2.357 0L21 .667"/></svg><svg viewBox="0 0 40 40" id="arrow-next" xmlns="http://www.w3.org/2000/svg"><path d="M22.223 8.333L33.332 20m0 0l-11.11 11.667M33.332 20H6.668"/></svg><svg viewBox="0 0 40 40" id="arrow-prev" xmlns="http://www.w3.org/2000/svg"><path d="M17.777 31.667L6.666 20m0 0L17.777 8.333M6.666 20h26.667"/></svg><svg viewBox="0 0 40 40" id="arrow-up" xmlns="http://www.w3.org/2000/svg"><path d="M8.333 17.778L20 6.667m0 0l11.666 11.11M20 6.668v26.666"/></svg><svg viewBox="0 0 24 24" id="form-mail" xmlns="http://www.w3.org/2000/svg"><path d="M3 5l7.772 6.045a2 2 0 002.456 0L21 5M5.2 20h13.6c1.12 0 1.68 0 2.108-.218a2 2 0 00.874-.874C22 18.48 22 17.92 22 16.8V7.2c0-1.12 0-1.68-.218-2.108a2 2 0 00-.874-.874C20.48 4 19.92 4 18.8 4H5.2c-1.12 0-1.68 0-2.108.218a2 2 0 00-.874.874C2 5.52 2 6.08 2 7.2v9.6c0 1.12 0 1.68.218 2.108a2 2 0 00.874.874C3.52 20 4.08 20 5.2 20z"/><path d="M3 5l7.772 6.045a2 2 0 002.456 0L21 5M5.2 20h13.6c1.12 0 1.68 0 2.108-.218a2 2 0 00.874-.874C22 18.48 22 17.92 22 16.8V7.2c0-1.12 0-1.68-.218-2.108a2 2 0 00-.874-.874C20.48 4 19.92 4 18.8 4H5.2c-1.12 0-1.68 0-2.108.218a2 2 0 00-.874.874C2 5.52 2 6.08 2 7.2v9.6c0 1.12 0 1.68.218 2.108a2 2 0 00.874.874C3.52 20 4.08 20 5.2 20z"/><path d="M3.092 5.092l7.68 5.953a2 2 0 002.456 0L20.908 5"/></svg><svg viewBox="0 0 24 24" id="from-tel" xmlns="http://www.w3.org/2000/svg"><path d="M20.664 18.771s-1.159 1.138-1.443 1.472c-.462.493-1.007.726-1.722.726-.069 0-.142 0-.21-.004-1.36-.087-2.625-.617-3.573-1.07a20.337 20.337 0 01-6.76-5.283c-1.56-1.878-2.605-3.615-3.297-5.48-.426-1.138-.581-2.024-.513-2.86.046-.536.252-.979.632-1.358L5.34 3.355c.225-.21.463-.324.696-.324.289 0 .522.173.669.32l.014.013c.279.26.545.53.824.818.142.147.288.293.435.444l1.25 1.248c.486.484.486.932 0 1.416-.133.133-.26.265-.394.393-.384.393-.082.092-.48.448-.01.01-.019.014-.023.023-.394.393-.32.777-.239 1.038l.014.04c.325.787.783 1.527 1.48 2.41l.004.004c1.264 1.554 2.597 2.765 4.067 3.693.188.119.38.215.563.306.165.082.32.16.454.242.018.01.036.023.055.032a.994.994 0 00.453.114c.38 0 .618-.237.696-.315l.898-.896c.155-.155.403-.342.691-.342.284 0 .518.178.66.333a.39.39 0 00.009.01l2.523 2.517c.472.467.005 1.431.005 1.431z"/></svg><svg viewBox="0 0 24 24" id="icon-local" xmlns="http://www.w3.org/2000/svg"><path d="M12 21.6s7.513-6.678 7.513-11.687a7.513 7.513 0 00-15.026 0C4.487 14.922 12 21.6 12 21.6z"/><path d="M14.4 9.6a2.4 2.4 0 11-4.8 0 2.4 2.4 0 014.8 0z"/></svg><svg viewBox="0 0 24 25" id="icon-search" xmlns="http://www.w3.org/2000/svg"><circle cx="10.514" cy="10.964" r="9.514"/><path d="M17.054 18.05L23 23.994"/></svg><svg viewBox="0 0 24 24" id="mail" xmlns="http://www.w3.org/2000/svg"><path d="M3 5l7.772 6.045a2 2 0 002.456 0L21 5M5.2 20h13.6c1.12 0 1.68 0 2.108-.218a2 2 0 00.874-.874C22 18.48 22 17.92 22 16.8V7.2c0-1.12 0-1.68-.218-2.108a2 2 0 00-.874-.874C20.48 4 19.92 4 18.8 4H5.2c-1.12 0-1.68 0-2.108.218a2 2 0 00-.874.874C2 5.52 2 6.08 2 7.2v9.6c0 1.12 0 1.68.218 2.108a2 2 0 00.874.874C3.52 20 4.08 20 5.2 20z"/><path d="M3 5l7.772 6.045a2 2 0 002.456 0L21 5M5.2 20h13.6c1.12 0 1.68 0 2.108-.218a2 2 0 00.874-.874C22 18.48 22 17.92 22 16.8V7.2c0-1.12 0-1.68-.218-2.108a2 2 0 00-.874-.874C20.48 4 19.92 4 18.8 4H5.2c-1.12 0-1.68 0-2.108.218a2 2 0 00-.874.874C2 5.52 2 6.08 2 7.2v9.6c0 1.12 0 1.68.218 2.108a2 2 0 00.874.874C3.52 20 4.08 20 5.2 20z"/><path d="M3.092 5.092l7.68 5.953a2 2 0 002.456 0L20.908 5"/></svg><svg viewBox="0 0 24 25" id="phone" xmlns="http://www.w3.org/2000/svg"><path d="M20.664 19.271s-1.159 1.138-1.443 1.472c-.462.493-1.007.726-1.722.726-.069 0-.142 0-.21-.004-1.36-.087-2.625-.617-3.573-1.07a20.339 20.339 0 01-6.76-5.283c-1.56-1.879-2.605-3.615-3.297-5.48-.426-1.138-.581-2.025-.513-2.86.046-.536.252-.979.632-1.358L5.34 3.855c.225-.21.463-.324.696-.324.289 0 .522.173.669.32l.014.013c.279.26.545.53.824.818.142.147.288.293.435.444l1.25 1.247c.486.485.486.933 0 1.417-.133.133-.26.265-.394.393-.384.393-.082.092-.48.448-.01.01-.019.014-.023.023-.394.393-.32.777-.239 1.038l.014.04c.325.787.783 1.527 1.48 2.41l.004.004c1.264 1.554 2.597 2.765 4.067 3.693.188.118.38.214.563.306.165.082.32.16.454.242.018.01.036.023.055.032a.994.994 0 00.453.114c.38 0 .618-.237.696-.315l.898-.896c.155-.155.403-.343.691-.343.284 0 .518.179.66.334a.785.785 0 00.009.01l2.523 2.517c.472.467.005 1.431.005 1.431z"/></svg><svg viewBox="0 0 92 92" id="play" xmlns="http://www.w3.org/2000/svg"><path d="M62.872 49.794l-.546-.838-.014.01-.013.009.573.82zm0-6.45l-.593.805.044.032.048.028.5-.866zM37.018 24.305l.593-.805-.028-.02-.03-.02-.535.845zm-5.42 2.844l1-.003v-.017l-1 .02zm.109 37.395l-1 .003v.028l.002.029.998-.06zm5.618 3.116l.485.875.046-.025.043-.03-.574-.82zM46 90C21.7 90 2 70.3 2 46H0c0 25.405 20.595 46 46 46v-2zm44-44c0 24.3-19.7 44-44 44v2c25.405 0 46-20.595 46-46h-2zM46 2c24.3 0 44 19.7 44 44h2C92 20.595 71.405 0 46 0v2zm0-2C20.595 0 0 20.595 0 46h2C2 21.7 21.7 2 46 2V0zm17.417 50.632c1.735-1.13 2.932-2.528 2.93-4.158-.002-1.652-1.23-2.988-2.975-3.996l-1 1.731c1.548.895 1.974 1.709 1.975 2.268 0 .581-.45 1.456-2.02 2.48l1.09 1.675zm.048-8.094L37.61 23.501l-1.186 1.61L62.28 44.15l1.186-1.61zM37.553 23.461c-1.524-.965-3.265-1.273-4.7-.604-1.49.696-2.296 2.273-2.255 4.313l2-.04c-.03-1.502.533-2.195 1.101-2.46.624-.292 1.629-.25 2.784.48l1.07-1.689zm-6.955 3.692l.109 37.395 2-.006-.109-37.395-2 .006zm.11 37.451c.122 2.047.782 3.721 2.22 4.489 1.426.762 3.173.389 4.882-.557l-.969-1.75c-1.501.831-2.449.822-2.972.543-.512-.274-1.057-1.046-1.164-2.843l-1.996.118zm7.19 3.877l25.547-17.867-1.146-1.64-25.547 17.868L37.9 68.48z"/></svg><svg viewBox="0 0 24 24" id="tel" xmlns="http://www.w3.org/2000/svg"><path d="M20.664 18.771s-1.159 1.138-1.443 1.472c-.462.493-1.007.726-1.722.726-.069 0-.142 0-.21-.004-1.36-.087-2.625-.617-3.573-1.07a20.337 20.337 0 01-6.76-5.283c-1.56-1.878-2.605-3.615-3.297-5.48-.426-1.138-.581-2.024-.513-2.86.046-.536.252-.979.632-1.358L5.34 3.355c.225-.21.463-.324.696-.324.289 0 .522.173.669.32l.014.013c.279.26.545.53.824.818.142.147.288.293.435.444l1.25 1.248c.486.484.486.932 0 1.416-.133.133-.26.265-.394.393-.384.393-.082.092-.48.448-.01.01-.019.014-.023.023-.394.393-.32.777-.239 1.038l.014.04c.325.787.783 1.527 1.48 2.41l.004.004c1.264 1.554 2.597 2.765 4.067 3.693.188.119.38.215.563.306.165.082.32.16.454.242.018.01.036.023.055.032a.994.994 0 00.453.114c.38 0 .618-.237.696-.315l.898-.896c.155-.155.403-.342.691-.342.284 0 .518.178.66.333a.39.39 0 00.009.01l2.523 2.517c.472.467.005 1.431.005 1.431z"/></svg><svg viewBox="0 0 80 80" id="thumb-up" xmlns="http://www.w3.org/2000/svg"><path d="M46.667 33.333h15.88a6.667 6.667 0 015.963 9.647L56.843 66.313A6.666 6.666 0 0150.877 70h-13.39a6.63 6.63 0 01-1.617-.2l-12.537-3.133m23.334-33.334V16.667A6.667 6.667 0 0040 10h-.317a3.016 3.016 0 00-3.016 3.017c0 2.38-.704 4.706-2.027 6.686L23.333 36.667v30m23.334-33.334H40M23.333 66.667h-6.666A6.667 6.667 0 0110 60V40a6.667 6.667 0 016.667-6.667H25"/></svg><svg viewBox="0 0 24 24" id="user" xmlns="http://www.w3.org/2000/svg"><path d="M12 14a5 5 0 100-10 5 5 0 000 10zm0 0c-4.418 0-8 2.686-8 6m8-6c4.418 0 8 2.686 8 6"/></svg></svg>