<svg width="260" height="140" viewBox="0 0 260 140" fill="none" xmlns="http://www.w3.org/2000/svg">
<path d="M23.3337 58.3332H11.667M29.167 75.8331H17.5003M19.6071 109.722C41.5452 137.554 81.8915 142.331 109.723 120.393C137.554 98.455 142.332 58.1088 120.394 30.2773C98.4554 2.44592 58.1092 -2.33151 30.2778 19.6067M35.0003 40.8331H37.2328C40.9908 40.8331 44.1459 43.635 44.5534 47.3341L47.5394 74.4364C47.947 78.1355 51.1021 80.9373 54.86 80.9373H86.7182C90.0844 80.9373 93.0221 78.6772 93.8539 75.4475L98.9349 55.7195C100.122 51.1091 96.6044 46.626 91.7992 46.626H48.2556M48.3468 94.1532H51.1083M48.3468 96.8876H51.1083M88.8491 94.1532H91.6107M88.8491 96.8876H91.6107M53.4105 95.5206C53.4105 97.5342 51.762 99.1665 49.7285 99.1665C47.6949 99.1665 46.0464 97.5342 46.0464 95.5206C46.0464 93.5071 47.6949 91.8748 49.7285 91.8748C51.762 91.8748 53.4105 93.5071 53.4105 95.5206ZM93.9128 95.5206C93.9128 97.5342 92.2643 99.1665 90.2308 99.1665C88.1973 99.1665 86.5488 97.5342 86.5488 95.5206C86.5488 93.5071 88.1973 91.8748 90.2308 91.8748C92.2643 91.8748 93.9128 93.5071 93.9128 95.5206Z" stroke="#111111" stroke-width="2" stroke-linecap="round"/>
<path d="M143.334 58.3332H131.667M149.167 75.8331H137.5M139.607 109.722C161.545 137.554 201.891 142.331 229.723 120.393C257.554 98.455 262.332 58.1088 240.394 30.2773C218.455 2.44592 178.109 -2.33151 150.278 19.6067M155 40.8331H157.233C160.991 40.8331 164.146 43.635 164.553 47.3341L167.539 74.4364C167.947 78.1355 171.102 80.9373 174.86 80.9373H206.718C210.084 80.9373 213.022 78.6772 213.854 75.4475L218.935 55.7195C220.122 51.1091 216.604 46.626 211.799 46.626H168.256M168.347 94.1532H171.108M168.347 96.8876H171.108M208.849 94.1532H211.611M208.849 96.8876H211.611M173.41 95.5206C173.41 97.5342 171.762 99.1665 169.728 99.1665C167.695 99.1665 166.046 97.5342 166.046 95.5206C166.046 93.5071 167.695 91.8748 169.728 91.8748C171.762 91.8748 173.41 93.5071 173.41 95.5206ZM213.913 95.5206C213.913 97.5342 212.264 99.1665 210.231 99.1665C208.197 99.1665 206.549 97.5342 206.549 95.5206C206.549 93.5071 208.197 91.8748 210.231 91.8748C212.264 91.8748 213.913 93.5071 213.913 95.5206Z" stroke="#111111" stroke-width="2" stroke-linecap="round"/>
</svg>
