<svg width="290" height="290" viewBox="0 0 290 290" fill="none" xmlns="http://www.w3.org/2000/svg">
<path d="M96.8744 246.294C96.35 246.467 96.0654 247.033 96.2387 247.557C96.412 248.082 96.9776 248.366 97.5019 248.193L96.8744 246.294ZM167.501 251.891L167.411 250.895L167.411 250.895L167.501 251.891ZM209.689 242.596L210.125 243.496L210.125 243.496L209.689 242.596ZM250.001 206.239L249.226 205.606L249.226 205.606L250.001 206.239ZM222.43 183.49L223.134 184.2L223.134 184.2L222.43 183.49ZM203.864 201.897L204.568 202.607L204.568 202.607L203.864 201.897ZM153.439 209.064C152.886 209.064 152.439 209.512 152.439 210.064C152.439 210.616 152.886 211.064 153.439 211.064V209.064ZM245.714 181.204L245.163 182.038L245.163 182.038L245.714 181.204ZM111.457 175.106L111.901 176.002L111.901 176.002L111.457 175.106ZM161.918 170.53L162.179 169.564L162.179 169.564L161.918 170.53ZM181.623 175.858L181.362 176.823L181.362 176.823L181.623 175.858ZM187.867 199.168L187.163 198.458L187.163 198.458L187.867 199.168ZM176.172 209.354C175.78 209.743 175.778 210.376 176.166 210.768C176.555 211.16 177.188 211.163 177.581 210.774L176.172 209.354ZM97.5019 248.193C100.824 247.095 105.349 246.923 110.741 247.304C116.112 247.684 122.224 248.602 128.675 249.606C141.52 251.607 155.722 253.959 167.591 252.887L167.411 250.895C155.843 251.94 141.92 249.645 128.983 247.63C122.544 246.627 116.35 245.696 110.882 245.309C105.434 244.924 100.583 245.068 96.8744 246.294L97.5019 248.193ZM167.591 252.887C186.146 251.211 193.155 251.707 210.125 243.496L209.254 241.696C192.669 249.72 186.04 249.212 167.411 250.895L167.591 252.887ZM210.125 243.496C224.951 236.323 240.622 219.3 250.775 206.872L249.226 205.606C239.064 218.047 223.637 234.737 209.254 241.696L210.125 243.496ZM221.726 182.78L203.16 201.187L204.568 202.607L223.134 184.2L221.726 182.78ZM183.977 209.064H153.439V211.064H183.977V209.064ZM203.16 201.187C198.074 206.229 191.174 209.064 183.977 209.064V211.064C191.699 211.064 199.106 208.023 204.568 202.607L203.16 201.187ZM246.266 180.37C238.553 175.272 228.283 176.279 221.726 182.78L223.134 184.2C229.017 178.368 238.238 177.461 245.163 182.038L246.266 180.37ZM250.775 206.872C257.649 198.457 255.269 186.321 246.266 180.37L245.163 182.038C253.262 187.392 255.289 198.185 249.226 205.606L250.775 206.872ZM45.6251 164.59H83.1255V162.59H45.6251V164.59ZM91.5006 172.884V256.538H93.5006V172.884H91.5006ZM83.1255 264.833H45.6251V266.833H83.1255V264.833ZM37.25 256.538V172.884H35.25V256.538H37.25ZM45.6251 264.833C40.9915 264.833 37.25 261.111 37.25 256.538H35.25C35.25 262.232 39.9032 266.833 45.6251 266.833V264.833ZM91.5006 256.538C91.5006 261.111 87.7591 264.833 83.1255 264.833V266.833C88.8474 266.833 93.5006 262.232 93.5006 256.538H91.5006ZM83.1255 164.59C87.7591 164.59 91.5006 168.311 91.5006 172.884H93.5006C93.5006 167.191 88.8474 162.59 83.1255 162.59V164.59ZM45.6251 162.59C39.9032 162.59 35.25 167.191 35.25 172.884H37.25C37.25 168.311 40.9915 164.59 45.6251 164.59V162.59ZM97.6323 183.075L111.901 176.002L111.013 174.21L96.744 181.283L97.6323 183.075ZM140.806 169.237H144.65V167.237H140.806V169.237ZM161.657 171.495L181.362 176.823L181.884 174.893L162.179 169.564L161.657 171.495ZM187.163 198.458L176.172 209.354L177.581 210.774L188.571 199.878L187.163 198.458ZM181.362 176.823C191.044 179.441 194.244 191.436 187.163 198.458L188.571 199.878C196.759 191.759 193.037 177.908 181.884 174.893L181.362 176.823ZM144.65 169.237C150.395 169.237 156.114 169.996 161.657 171.495L162.179 169.564C156.466 168.02 150.571 167.237 144.65 167.237V169.237ZM111.901 176.002C120.875 171.553 130.771 169.237 140.806 169.237V167.237C130.464 167.237 120.264 169.624 111.013 174.21L111.901 176.002ZM213.377 98.5255C213.377 118.499 197.043 134.705 176.877 134.705V136.705C198.132 136.705 215.377 119.62 215.377 98.5255H213.377ZM176.877 134.705C156.71 134.705 140.376 118.499 140.376 98.5255H138.376C138.376 119.62 155.621 136.705 176.877 136.705V134.705ZM140.376 98.5255C140.376 78.5522 156.71 62.346 176.877 62.346V60.346C155.621 60.346 138.376 77.4314 138.376 98.5255H140.376ZM176.877 62.346C197.043 62.346 213.377 78.5522 213.377 98.5255H215.377C215.377 77.4314 198.132 60.346 176.877 60.346V62.346ZM139.376 97.5255C119.209 97.5255 102.876 81.3193 102.876 61.346H100.876C100.876 82.44 118.121 99.5255 139.376 99.5255V97.5255ZM102.876 61.346C102.876 41.3727 119.209 25.1665 139.376 25.1665V23.1665C118.121 23.1665 100.876 40.252 100.876 61.346H102.876ZM139.376 25.1665C159.543 25.1665 175.877 41.3727 175.877 61.346H177.877C177.877 40.252 160.631 23.1665 139.376 23.1665V25.1665Z" fill="black"/>
</svg>
