<svg width="30" height="30" viewBox="0 0 30 30" fill="none" xmlns="http://www.w3.org/2000/svg">
<path d="M25.8293 23.4639C25.8293 23.4639 24.381 24.8864 24.026 25.3035C23.4478 25.9204 22.7666 26.2118 21.8736 26.2118C21.7877 26.2118 21.6961 26.2118 21.6102 26.2061C19.91 26.0975 18.33 25.4349 17.145 24.8693C13.9049 23.3039 11.0598 21.0816 8.69549 18.2651C6.74339 15.9171 5.43818 13.7462 4.57376 11.4153C4.04137 9.99281 3.84673 8.8845 3.9326 7.83904C3.98985 7.17063 4.24745 6.61647 4.7226 6.1423L6.67469 4.19419C6.9552 3.9314 7.25288 3.78857 7.54484 3.78857C7.90549 3.78857 8.19744 4.00567 8.38063 4.18848C8.38636 4.19419 8.39208 4.19991 8.39781 4.20562C8.74701 4.53125 9.07903 4.86832 9.42824 5.22823C9.6057 5.41105 9.78889 5.59386 9.97208 5.78239L11.5349 7.34201C12.1417 7.94758 12.1417 8.50745 11.5349 9.11302C11.3689 9.2787 11.2086 9.44437 11.0426 9.60433C10.5617 10.0956 10.9395 9.71866 10.4414 10.1643C10.43 10.1757 10.4185 10.1814 10.4128 10.1928C9.92048 10.6841 10.0121 11.164 10.1151 11.4897C10.1208 11.5068 10.1266 11.5239 10.1323 11.5411C10.5387 12.5237 11.1112 13.4492 11.9813 14.5518L11.9871 14.5575C13.5671 16.4999 15.2329 18.0138 17.0705 19.1736C17.3052 19.3221 17.5457 19.4421 17.7747 19.5563C17.9807 19.6592 18.1754 19.7563 18.3414 19.8591C18.3643 19.8705 18.3872 19.8877 18.4101 19.8991C18.6047 19.9962 18.7879 20.0419 18.9768 20.0419C19.452 20.0419 19.7497 19.7448 19.847 19.6477L20.9691 18.5279C21.1637 18.3337 21.4728 18.0995 21.8335 18.0995C22.1884 18.0995 22.4804 18.3223 22.6578 18.5165C22.6636 18.5222 22.6636 18.5222 22.6693 18.5279L25.8236 21.6757C26.4132 22.2585 25.8293 23.4639 25.8293 23.4639Z" fill="#A73031"/>
</svg>
