<svg width="40" height="40" viewBox="0 0 40 40" fill="none" xmlns="http://www.w3.org/2000/svg">
<path d="M4.9987 8.33335L17.9522 18.4083C19.1559 19.3445 20.8415 19.3445 22.0452 18.4083L34.9987 8.33335M8.66537 33.3334H31.332C33.1989 33.3334 34.1323 33.3334 34.8453 32.97C35.4725 32.6505 35.9825 32.1405 36.3021 31.5133C36.6654 30.8003 36.6654 29.8669 36.6654 28V12C36.6654 10.1332 36.6654 9.19976 36.3021 8.48672C35.9825 7.85951 35.4725 7.34958 34.8453 7.03C34.1323 6.66669 33.1989 6.66669 31.332 6.66669H8.66536C6.79852 6.66669 5.8651 6.66669 5.15206 7.03C4.52486 7.34958 4.01492 7.85951 3.69534 8.48672C3.33203 9.19976 3.33203 10.1332 3.33203 12V28C3.33203 29.8669 3.33203 30.8003 3.69534 31.5133C4.01492 32.1405 4.52486 32.6505 5.15206 32.97C5.8651 33.3334 6.79852 33.3334 8.66537 33.3334Z" stroke="#271D3B"/>
<path d="M5.15234 8.48668L17.9525 18.4083C19.1562 19.3445 20.8417 19.3445 22.0454 18.4083L34.8456 8.33331" stroke="#271D3B"/>
</svg>
