<svg width="280" height="140" viewBox="0 0 280 140" fill="none" xmlns="http://www.w3.org/2000/svg">
<path d="M93.4816 119.996L93.4833 101.249C93.4842 90.8935 85.0899 82.4985 74.7346 82.4985H32.7508C22.397 82.4985 14.0033 90.8912 14.0021 101.245L14 119.996M125.998 119.997L126 101.25C126.001 90.8946 117.607 82.4995 107.251 82.4995M89.8703 23.6861C94.4745 27.1024 97.4584 32.579 97.4584 38.7526C97.4584 44.9262 94.4745 50.4029 89.8703 53.8191M72.8805 38.7516C72.8805 49.1062 64.4864 57.5002 54.1318 57.5002C43.7772 57.5002 35.3832 49.1062 35.3832 38.7516C35.3832 28.397 43.7772 20.0029 54.1318 20.0029C64.4864 20.0029 72.8805 28.397 72.8805 38.7516Z" stroke="black" stroke-width="2" stroke-linecap="round" stroke-linejoin="round"/>
<path d="M186.518 119.996L186.517 101.249C186.516 90.8935 194.91 82.4985 205.265 82.4985H247.249C257.603 82.4985 265.997 90.8912 265.998 101.245L266 119.996M154.002 119.997L154 101.25C153.999 90.8946 162.393 82.4995 172.749 82.4995M190.13 23.6861C185.525 27.1024 182.542 32.579 182.542 38.7526C182.542 44.9262 185.525 50.4029 190.13 53.8191M207.12 38.7516C207.12 49.1062 215.514 57.5002 225.868 57.5002C236.223 57.5002 244.617 49.1062 244.617 38.7516C244.617 28.397 236.223 20.0029 225.868 20.0029C215.514 20.0029 207.12 28.397 207.12 38.7516Z" stroke="black" stroke-width="2" stroke-linecap="round" stroke-linejoin="round"/>
</svg>
